# xmcd
#
# Track frame offsets: 
#        150
#        9772
#        21787
#        34085
#        45567
#        60415
#        74772
#        87957
#        99915
#        111235
#        121585
#        137077
#        151437
#        165755
#        173397
#        186567
#        197667
#        212587
#        226922
#        239842
#        255365
#        262257
#
# Disc length: 3764 seconds
#
# Revision: 1
# Processed by: cddbd v1.5.2PL0 Copyright (c) Steve Scherf et al.
# Submitted via: ExactAudioCopy v1.0b3
#
DISCID=1e0eb216
DTITLE=Comedian Harmonists - Original-Musik Aus Dem Film 
DYEAR=1997
DGENRE=Soundtrack
TTITLE0=Comedian Harmonists
TTITLE1=Veronika, Der Lenz Ist Da
TTITLE2=Zachor To Remeber - Impro. Nr. 62
TTITLE3=I'm Gonna Charleston Back To Charleston
TTITLE4=Dinah
TTITLE5=Bob Und Harry
TTITLE6=Irgendwo Auf Der Welt
TTITLE7=Marie, Marie
TTITLE8=Ein Bisschen Leichtsinn Kann Nicht Schaden
TTITLE9=Mein Kleiner Grüner Kaktus
TTITLE10=Schöne Isabella Aus Kastilien
TTITLE11=Creole Love Call
TTITLE12=Ein Neuer Frühling Wird In Die Heimat Kommen
TTITLE13=Sad Theme
TTITLE14=In Einem Kühlen Grunde
TTITLE15=Der Onkel Bumba Aus Kalumba Tanzt Nur Rumba
TTITLE16=The Way With Every Sailor (Das Ist Die Liebe Der Matrosen)
TTITLE17=Wochenend Und Sonnenschein (Happy Days Are Here Again)
TTITLE18=Abreise Aus Amerika
TTITLE19=Auf Wiedersehn, My Dear
TTITLE20=Ursula
TTITLE21=Harry's Thema
EXTD=
EXTT0=
EXTT1=
EXTT2=
EXTT3=
EXTT4=
EXTT5=
EXTT6=
EXTT7=
EXTT8=
EXTT9=
EXTT10=
EXTT11=
EXTT12=
EXTT13=
EXTT14=
EXTT15=
EXTT16=
EXTT17=
EXTT18=
EXTT19=
EXTT20=
EXTT21=
PLAYORDER=
